{"title":"De Storm-AC3-5,1-DVDRip-2009-Nederlands","uid":5270227,"size":1462811162,"categoryP":"video","categoryS":"movies","magnet":"?xt=urn:btih:dab34053486c1b0eab9d376ccba138d6fb854cb3&amp;dn=De+Storm-AC3-5%2C1-DVDRip-2009-Nederlands&amp;tr=udp%3A%2F%2Ftracker.openbittorrent.com%3A80&amp;tr=udp%3A%2F%2Fopen.demonii.com%3A1337&amp;tr=udp%3A%2F%2Ftracker.coppersurfer.tk%3A6969&amp;tr=udp%3A%2F%2Fexodus.desync.com%3A6969","seeders":1,"leechers":1,"uploader":"FatFreddy31","files":-1,"time":1263031753,"description":" &lt;a href=&quot;http://www.imdb.com/title/tt1230194/&quot; rel=&quot;nofollow&quot; target=&quot;_NEW&quot;&gt;http://www.imdb.com/title/tt1230194/&lt;/a&gt;\n &lt;a href=&quot;\nhttp://www.moviemeter.nl/film/54085&quot; rel=&quot;nofollow&quot; target=&quot;_NEW&quot;&gt;\nhttp://www.moviemeter.nl/film/54085&lt;/a&gt;\n\nStorm, De (2009) Alternatieve titel: The Storm \n\nUser Rating:6.5/10 - 310 votes\n\nNederland\nDrama\n96 minuten\n\nGeregisseerd door Ben Sombogaart\nMet Sylvia Hoeks, Barry Atsma en Monic Hendrickx\n\nDe Storm gaat over Julia (Sylvia Hoeks), een 18-jarige Zeeuwse boerendochter, die zwanger raakt van haar vriendje Koos, een vissersjongen. Koos schrikt zo van dit nieuws dat hij met de Noorderzon vertrekt. Julia staat er helemaal alleen voor in een vijandig dorp: de zwangerschap en de bevalling worden eerst veroordeeld en later genegeerd door haar famile en dorpsgenoten. In de nacht van 31 januari 1953 breken de dijken in Zeeland tijdens een verschrikkelijke februaristorm op meer dan honderd plaatsen en wordt de boerderij verzwolgen door een zondvloed. Julia komt samen met haar zoon in het water terecht en wordt - tegen haar wil - gered door de jonge luchtmachtsergeant Aldo (Barry Atsma), haar baby in het water achterlatend. Ze is ontroostbaar, hult zich in stilzwijgen en weigert met haar gehate redder te praten. Voorzichtig probeert Aldo in contact te komen met de jonge vrouw, ontrafelt stukje bij beetje haar achtergrond en besluit tenslotte om haar te helpen haar zoon te vinden.\n\nInfo:\n\nCover bijgesloten.\n\nGeneral\nComplete name                    : De Storm-AC3-5,1-DVDRip-2009-Nederlands.avi\nFormat                           : AVI\nFormat/Info                      : Audio Video Interleave\nFile size                        : 1.36 GiB\nDuration                         : 1h 32mn\nOverall bit rate                 : 2 098 Kbps\nWriting application              : VirtualDubMod 1.5.4.1 (build 2178/release)\nWriting library                  : VirtualDubMod build 2178/release\n\nVideo\nID                               : 0\nFormat                           : MPEG-4 Visual\nFormat profile                   : Simple@L3\nFormat settings, BVOP            : No\nFormat settings, QPel            : No\nFormat settings, GMC             : No warppoints\nFormat settings, Matrix          : Default (H.263)\nCodec ID                         : XVID\nCodec ID/Hint                    : XviD\nDuration                         : 1h 32mn\nBit rate                         : 1 641 Kbps\nWidth                            : 640 pixels\nHeight                           : 272 pixels\nDisplay aspect ratio             : 2.35:1\nFrame rate                       : 25.000 fps\nResolution                       : 24 bits\nColorimetry                      : 4:2:0\nScan type                        : Progressive\nBits/(Pixel*Frame)               : 0.377\nStream size                      : 1.06 GiB (78%)\nWriting library                  : XviD 1.1.2 (UTC 2006-11-01)\n\nAudio\nID                               : 1\nFormat                           : AC-3\nFormat/Info                      : Audio Coding 3\nCodec ID                         : 2000\nDuration                         : 1h 32mn\nBit rate mode                    : Constant\nBit rate                         : 448 Kbps\nChannel(s)                       : 6 channels\nChannel positions                : Front: L C R, Surround: L R, LFE\nSampling rate                    : 48.0 KHz\nStream size                      : 297 MiB (21%)\nAlignment                        : Split accross interleaves\nInterleave, duration             : 40 ms (1.00 video frame)\nInterleave, preload duration     : 500 ms\n\nVeel plezier met deze film.","torrent":{"xt":"urn:btih:dab34053486c1b0eab9d376ccba138d6fb854cb3","amp;dn":"De+Storm-AC3-5%2C1-DVDRip-2009-Nederlands","amp;tr":["udp%3A%2F%2Ftracker.openbittorrent.com%3A80","udp%3A%2F%2Fopen.demonii.com%3A1337","udp%3A%2F%2Ftracker.coppersurfer.tk%3A6969","udp%3A%2F%2Fexodus.desync.com%3A6969"],"infoHash":"dab34053486c1b0eab9d376ccba138d6fb854cb3","infoHashBuffer":{"type":"Buffer","data":[218,179,64,83,72,108,27,14,171,157,55,108,203,161,56,214,251,133,76,179]},"announce":[],"urlList":[]}}